# xmcd CD database file
#
# Track frame offsets:
#	150
#	15613
#	35951
#	51817
#	66639
#	85406
#	104286
#	119530
#	131118
#	143674
#
# Disc length: 2238 seconds
#
# Revision: 2
# Processed by: cddbd v1.5.2PL0 Copyright (c) Steve Scherf et al.
# Submitted via: CDex 1.50beta10
#
DISCID=9708bc0a
DTITLE=Charlie Daniels - Charlie Daniels
DYEAR=1970
DGENRE=Southern Rock
TTITLE0=Great Big Bunches Of Love
TTITLE1=Little Boy Blue
TTITLE2=Ain't No Way
TTITLE3=Don't Let Your Man Find Out
TTITLE4=Trudy
TTITLE5=Long Long Way (Back Home)
TTITLE6=Georgia
TTITLE7=The Pope And The Dope
TTITLE8=Life Goes On
TTITLE9=Thirty Nine Miles From Mobile
EXTD=YEAR: 1970
EXTT0=
EXTT1=
EXTT2=
EXTT3=
EXTT4=
EXTT5=
EXTT6=
EXTT7=
EXTT8=
EXTT9=
PLAYORDER=
